<svg width="32" height="32" viewBox="0 0 32 32" fill="none" xmlns="http://www.w3.org/2000/svg">
<path d="M30.3394 5.33936C31.5601 4.11865 31.5601 2.13623 30.3394 0.915527C29.1187 -0.305176 27.1362 -0.305176 25.9155 0.915527L15.6323 11.2085L5.33936 0.925293C4.11865 -0.29541 2.13623 -0.29541 0.915527 0.925293C-0.305176 2.146 -0.305176 4.12842 0.915527 5.34912L11.2085 15.6323L0.925293 25.9253C-0.29541 27.146 -0.29541 29.1284 0.925293 30.3491C2.146 31.5698 4.12842 31.5698 5.34912 30.3491L15.6323 20.0562L25.9253 30.3394C27.146 31.5601 29.1284 31.5601 30.3491 30.3394C31.5698 29.1187 31.5698 27.1362 30.3491 25.9155L20.0562 15.6323L30.3394 5.33936Z" fill="#FF0000"/>
</svg>
